<svg xmlns="http://www.w3.org/2000/svg" width="51.875" height="41.5" viewBox="0 0 51.875 41.5">
  <path id="door-open-solid" d="M50.578,36.313H44.094V9.2A3.955,3.955,0,0,0,40.2,5.188H31.125v5.188h7.781V41.5H50.578a1.3,1.3,0,0,0,1.3-1.3V37.61A1.3,1.3,0,0,0,50.578,36.313ZM25.309.083,9.746,4.114A2.671,2.671,0,0,0,7.781,6.722V36.313H1.3A1.3,1.3,0,0,0,0,37.61V40.2a1.3,1.3,0,0,0,1.3,1.3H28.531V2.69A2.616,2.616,0,0,0,25.309.083ZM21.4,23.345c-1.074,0-1.945-1.162-1.945-2.594s.871-2.594,1.945-2.594,1.945,1.162,1.945,2.594S22.472,23.345,21.4,23.345Z" transform="translate(0 -0.001)" fill="#818181"/>
</svg>
