<svg xmlns="http://www.w3.org/2000/svg" width="43" height="43" viewBox="0 0 43 43">
  <g id="Group_4" data-name="Group 4" transform="translate(-605 -1236)">
    <circle id="Ellipse_29" data-name="Ellipse 29" cx="21.5" cy="21.5" r="21.5" transform="translate(605 1236)" fill="#d6b56a"/>
    <path id="key-solid" d="M25.935,8.915a8.92,8.92,0,0,1-10.578,8.76l-1.216,1.368a1.216,1.216,0,0,1-.909.408H11.347v2.026a1.216,1.216,0,0,1-1.216,1.216H8.1v2.026a1.216,1.216,0,0,1-1.216,1.216H1.216A1.216,1.216,0,0,1,0,24.719V20.765a1.216,1.216,0,0,1,.356-.86l8.2-8.2A8.916,8.916,0,1,1,25.935,8.915ZM17.02,6.484a2.431,2.431,0,1,0,2.431-2.431A2.431,2.431,0,0,0,17.02,6.484Z" transform="translate(613.604 1244.796)" fill="#fff"/>
  </g>
</svg>
